<svg xmlns="http://www.w3.org/2000/svg" width="384" height="384" viewBox="0 0 384 384">
  <g id="pwa-512x512" transform="translate(-64 -64)">
    <rect id="Rechteck_41" data-name="Rechteck 41" width="384" height="384" rx="128" transform="translate(64 64)" fill="#ebe3cd"/>
    <path id="pets_24dp_000000_FILL0_wght400_GRAD0_opsz24" d="M102.417-754.3A21.649,21.649,0,0,1,86.5-760.8,21.645,21.645,0,0,1,80-776.714a21.647,21.647,0,0,1,6.5-15.916,21.645,21.645,0,0,1,15.916-6.5,21.645,21.645,0,0,1,15.916,6.5,21.647,21.647,0,0,1,6.5,15.916,21.645,21.645,0,0,1-6.5,15.917A21.649,21.649,0,0,1,102.417-754.3Zm24.435-42.37a21.642,21.642,0,0,1-6.5-15.916,21.645,21.645,0,0,1,6.5-15.916,21.646,21.646,0,0,1,15.917-6.5,21.645,21.645,0,0,1,15.916,6.5,21.644,21.644,0,0,1,6.5,15.916,21.641,21.641,0,0,1-6.5,15.916,21.645,21.645,0,0,1-15.916,6.5A21.646,21.646,0,0,1,126.852-796.667Zm53.8,0a21.642,21.642,0,0,1-6.5-15.916,21.645,21.645,0,0,1,6.5-15.916,21.645,21.645,0,0,1,15.916-6.5,21.646,21.646,0,0,1,15.917,6.5,21.645,21.645,0,0,1,6.5,15.916,21.642,21.642,0,0,1-6.5,15.916,21.645,21.645,0,0,1-15.917,6.5A21.645,21.645,0,0,1,180.654-796.667Zm56.268,42.37a21.65,21.65,0,0,1-15.916-6.5,21.645,21.645,0,0,1-6.5-15.917,21.647,21.647,0,0,1,6.5-15.916,21.645,21.645,0,0,1,15.916-6.5,21.645,21.645,0,0,1,15.916,6.5,21.647,21.647,0,0,1,6.5,15.916,21.645,21.645,0,0,1-6.5,15.917A21.649,21.649,0,0,1,236.922-754.3ZM121.7-664.628a21.7,21.7,0,0,1-16.925-7.733,26.689,26.689,0,0,1-6.837-18.271,29.354,29.354,0,0,1,7.958-20.4q7.958-8.74,15.8-17.26a81.844,81.844,0,0,0,11.209-15.133,88.657,88.657,0,0,1,11.209-15.355,44.151,44.151,0,0,1,11.433-9.642,27.444,27.444,0,0,1,14.123-3.809,28.775,28.775,0,0,1,14.123,3.585,40.6,40.6,0,0,1,11.433,9.417,98.994,98.994,0,0,1,11.1,15.467,91.266,91.266,0,0,0,11.321,15.47q7.846,8.516,15.8,17.26a29.353,29.353,0,0,1,7.958,20.4,26.688,26.688,0,0,1-6.837,18.271,21.7,21.7,0,0,1-16.925,7.733,143.285,143.285,0,0,1-23.987-2.016,142.878,142.878,0,0,0-23.987-2.02,142.877,142.877,0,0,0-23.987,2.02A143.286,143.286,0,0,1,121.7-664.628Z" transform="translate(86.33 966.84)" fill="#6e4609"/>
    <text id="Petfeeder" transform="translate(174.433 370.22)" fill="#6e4609" font-size="37" font-family="DIN-Black, DIN" font-weight="800"><tspan x="0" y="0">Pet</tspan><tspan y="0" font-family="DIN-Medium, DIN" font-weight="500">feeder</tspan></text>
  </g>
</svg>
