<svg xmlns="http://www.w3.org/2000/svg" width="176" height="176" viewBox="0 0 176 176">
  <g id="pwa-192x192" transform="translate(-8 -8)">
    <rect id="Rechteck_40" data-name="Rechteck 40" width="176" height="176" rx="48" transform="translate(8 8)" fill="#ebe3cd"/>
    <path id="pets_24dp_000000_FILL0_wght400_GRAD0_opsz24" d="M89.619-800.371a9.29,9.29,0,0,1-6.83-2.789A9.288,9.288,0,0,1,80-809.99a9.289,9.289,0,0,1,2.79-6.829,9.288,9.288,0,0,1,6.83-2.79,9.288,9.288,0,0,1,6.83,2.79,9.289,9.289,0,0,1,2.79,6.829,9.288,9.288,0,0,1-2.79,6.83A9.29,9.29,0,0,1,89.619-800.371ZM100.1-818.551a9.286,9.286,0,0,1-2.789-6.829,9.288,9.288,0,0,1,2.789-6.829,9.288,9.288,0,0,1,6.83-2.79,9.288,9.288,0,0,1,6.83,2.79,9.287,9.287,0,0,1,2.79,6.829,9.286,9.286,0,0,1-2.79,6.829,9.288,9.288,0,0,1-6.83,2.79A9.288,9.288,0,0,1,100.1-818.551Zm23.086,0a9.286,9.286,0,0,1-2.79-6.829,9.288,9.288,0,0,1,2.79-6.829,9.288,9.288,0,0,1,6.83-2.79,9.288,9.288,0,0,1,6.83,2.79,9.288,9.288,0,0,1,2.789,6.829,9.286,9.286,0,0,1-2.789,6.829,9.288,9.288,0,0,1-6.83,2.79A9.287,9.287,0,0,1,123.19-818.551Zm24.144,18.181a9.29,9.29,0,0,1-6.83-2.789,9.288,9.288,0,0,1-2.79-6.83,9.289,9.289,0,0,1,2.79-6.829,9.288,9.288,0,0,1,6.83-2.79,9.288,9.288,0,0,1,6.83,2.79,9.289,9.289,0,0,1,2.79,6.829,9.288,9.288,0,0,1-2.79,6.83A9.29,9.29,0,0,1,147.334-800.371ZM97.892-761.894a9.309,9.309,0,0,1-7.263-3.318,11.452,11.452,0,0,1-2.934-7.84,12.6,12.6,0,0,1,3.415-8.753q3.415-3.75,6.782-7.406a35.118,35.118,0,0,0,4.81-6.493,38.044,38.044,0,0,1,4.81-6.589,18.944,18.944,0,0,1,4.906-4.137,11.776,11.776,0,0,1,6.06-1.635,12.347,12.347,0,0,1,6.06,1.538,17.42,17.42,0,0,1,4.906,4.041,42.478,42.478,0,0,1,4.762,6.637,39.164,39.164,0,0,0,4.858,6.638q3.367,3.654,6.782,7.406a12.6,12.6,0,0,1,3.415,8.753,11.452,11.452,0,0,1-2.934,7.84,9.309,9.309,0,0,1-7.263,3.318,61.485,61.485,0,0,1-10.293-.865,61.307,61.307,0,0,0-10.293-.867,61.307,61.307,0,0,0-10.293.867A61.486,61.486,0,0,1,97.892-761.894Z" transform="translate(-22.477 886.447)" fill="#6e4609"/>
    <text id="Petfeeder" transform="translate(61 154)" fill="#6e4609" font-size="16" font-family="DIN-Black, DIN" font-weight="800"><tspan x="0" y="0">Pet</tspan><tspan y="0" font-family="DIN-Medium, DIN" font-weight="500">feeder</tspan></text>
  </g>
</svg>
